Patient4_TMGait_0pt5_02_left_33_EMG.mot
version=1
nRows=20
nColumns=33
inDegrees=no
endheader
time	1LAddLong	2LGlutMax	3LGlutMed	4LIliopsoas	5LSemiMemb	6LBicFemLong	7LRecFem	8LVastMed	9LVastLat	10LGasMed	11LTibAnt	12lTibPost	13LPeroneusLong	14LSol	15LExtDigLong	16LFlexDigLong	17RAddLong	18RGlutMax	19RGlutMed	20RIliopsoas	21RSemiMemb	22RBicFemLong	23RRecFem	24RVastMed	25RVastLat	26RGasMed	27RTibAnt	28RTibPost	29RPeroneusLong	30RSol	31RExtDigLong	32RFlexDigLong
42.952	-0.003815	1.1023	-0.11826	-0.006866	-0.11353	-0.000763	0.289	0.008392	-0.22522	-0.10162	0.006409	0.017395	0.69702	0.019684	0.003204	-0.019836	-0.033417	0.046539	0.010223	-0.10849	0.103	0.30624	0.31357	-0.088043	0.071869	0.000305	-0.14908	-0.001984	0.10727	-0.10162	0.001373	-0.000153
42.953	0.026398	0.91354	-0.15595	0.000916	-0.082855	-0.37567	0.25848	-0.004883	-0.20798	-0.12543	0.020752	0.021515	0.53116	-0.038757	0.006866	-0.002289	-0.12024	0.017853	0.072479	-0.052185	0.088501	0.30426	0.28549	-0.09903	0.089111	-0.011292	0.11444	-0.001678	-0.090485	-0.01358	-0.002289	-0.013123
42.954	0.031586	0.87112	-0.18463	0.014038	-0.051575	-0.37613	0.25284	0.010071	-0.18784	-0.032196	0.036621	0.038452	-0.49439	-0.23163	-0.13321	0.062561	-0.21179	0.057831	0.15472	-0.018005	0.020294	0.30716	0.22369	0.005341	0.093536	-0.001221	-0.53421	-0.006714	-0.041046	0.066223	-0.002136	0.001373
42.955	0.046234	0.74799	-0.15625	0.010834	0.035248	-0.21301	0.27512	0.002441	-0.15472	-0.001526	0.010071	0.037079	-0.43915	-0.058746	-0.070801	0.053558	-0.28046	0.029602	0.09201	0.002136	-0.039215	0.37018	0.24078	0.024567	0.10071	0.002136	-1.0689	-0.010681	0.028687	0.23422	-0.00412	-0.00061
42.956	0.039368	0.61569	-0.071869	-0.005341	0.11765	-0.096588	0.32379	0.01236	-0.15717	0.056458	0.002899	0.03952	-0.32532	0.002289	-0.002899	0.001373	-0.31509	0.025787	-0.016174	0.050812	-0.080109	0.31189	0.28824	-0.034943	0.06424	0.003052	-0.41351	-0.000763	-0.093536	0.1918	-0.001373	-0.00412
42.957	0.037079	0.56229	-0.036621	-0.008087	0.077667	-0.036316	0.29511	0.028076	-0.12634	0.014954	0.010529	0.05722	-0.15808	-0.00824	-0.038757	0.028229	-0.24262	-0.085754	-0.12436	0.090485	-0.10086	0.50262	0.30182	-0.078278	0.045013	0.006714	0.082245	-0.005646	-0.17883	0.082092	-0.001831	-0.00351
42.958	0.030518	0.43396	0.02182	0.007477	0.032501	-0.021667	0.29404	0.035858	-0.084534	-0.093231	0.013733	0.054779	-0.022736	-0.044861	-0.016479	0.029602	-0.20859	-0.21271	-0.25391	0.041199	-0.066528	0.36118	0.34164	-0.14282	0.010834	0.001678	0.31632	-0.006256	-0.33081	0.065918	-0.004883	-0.010223
42.959	0.01709	0.354	-0.082245	0.028992	-0.008087	-0.065613	0.2887	0.039978	-0.046387	-0.15854	0.021362	0.065765	-0.063324	-0.17014	0.009155	0.061646	-0.09903	-0.32074	-0.39841	-0.083618	0.032654	0.11826	0.30807	-0.11856	0.030518	-0.001526	0.40985	-0.004883	-0.34622	0.002136	-0.003967	-0.016022
42.96	0.000916	0.38025	-0.077362	0.0354	-0.061188	-0.083618	0.26566	0.02594	-0.008392	-0.22629	0.006561	0.092316	-0.050812	-0.034485	0.036774	0.040588	0.000153	-0.32166	-0.48599	-0.15076	-0.009613	0.063324	0.31448	-0.085144	0.033569	0.004578	0.36758	-0.007477	-0.24811	-0.008087	-0.000458	-0.016785
42.961	-0.007172	0.38132	-0.13596	0.005646	-0.12634	0.015869	0.15137	0.013733	0.080566	-0.33463	-0.007172	0.1651	-0.12253	-0.13245	0.077209	-0.28046	0.11231	-0.34714	-0.298	-0.25436	-0.039063	0.1297	0.31418	-0.10361	0.009003	-0.000305	0.05722	-0.00473	-0.084991	0.03952	-0.001526	-0.018921
42.962	-0.004425	0.36972	-0.1619	-0.012665	-0.17258	0.038757	0.10788	-0.01358	0.15488	-0.27512	-0.010681	0.56427	-0.10193	0.035706	0.065002	0.15549	0.15121	-0.41046	-0.18997	-0.26916	0.076294	0.17899	0.35721	-0.084686	0.011597	-0.002441	-0.14923	-0.007629	0.076447	0.062561	0.001221	-0.018921
42.963	0.016632	0.31128	-0.21545	-0.00824	-0.1297	-0.064697	0.13214	-0.054626	0.1503	-0.17288	-0.017548	-0.57251	-0.086823	0.35492	0.060883	0.17349	0.18066	-0.48874	-0.19257	-0.13184	0.21103	0.17334	0.31372	-0.088196	0.015564	-0.00061	-0.23636	-0.006866	0.1831	0.1265	-0.002441	-0.007324
42.964	0.032196	0.38422	-0.17944	0.004883	-0.023346	-0.17487	0.1358	-0.032196	0.12878	-0.025635	-0.00412	0.16129	-0.22751	0.17975	0.012512	0.06897	0.23209	-0.48218	-0.1886	-0.11566	0.1709	0.10925	0.36545	-0.17593	-0.017548	-0.001068	-0.12299	-0.000916	0.091248	0.11536	-0.001831	-0.003662
42.965	0.034637	0.53635	-0.11063	0.008392	0.11948	-0.25559	0.068817	-0.025024	0.10574	0.30685	0.002594	0.20538	-0.28671	-0.22842	-0.03067	0.36606	0.23163	-0.49698	-0.21744	-0.084991	0.14786	0.008698	0.40314	-0.20126	-0.015259	-0.001831	0.25024	-0.008392	-0.083771	0.023346	-0.001373	-0.00885
42.966	0.040131	0.52094	-0.16846	0.016479	0.10986	-0.32318	0.050049	-0.025024	-0.006104	0.55878	0.00885	-0.002594	-0.25665	-0.41779	-0.031586	0.14587	0.17441	-0.5809	-0.33157	-0.020142	0.14389	-0.055237	0.36621	-0.19424	-0.020294	-0.001068	0.1387	-0.007477	-0.23209	0.000458	-0.00473	-0.012817
42.967	0.020447	0.44739	-0.21118	0.018463	0.081482	-0.21698	0.019226	-0.013733	-0.13168	0.31403	-0.00412	0.013733	-0.014343	-0.54016	-0.002441	-0.15686	0.11353	-0.66223	-0.28198	0.079193	0.13825	-0.15015	0.33768	-0.15839	-0.024719	-0.005188	0.018463	-0.007629	-0.20477	0.05249	-0.004578	-0.011597
42.968	0.006714	0.53406	-0.14816	0.007629	0.073395	-0.040588	-0.001068	0.003204	-0.088348	-0.11322	-0.007019	0.12466	0.22339	-0.84839	0.004272	-0.020599	0.068817	-0.69351	-0.23789	0.17441	0.097198	-0.20447	0.31143	-0.03891	-0.0177	-0.009766	0.21668	-0.004425	-0.068054	0.061188	-0.001678	-0.010223
42.969	0.009613	0.62012	-0.078888	0.017853	0.037231	-0.019226	-0.093536	0.000153	-0.006104	-0.17166	-0.00473	0.21942	0.23056	-0.47531	-0.004272	-0.1532	0.022736	-0.77621	-0.18662	0.13886	0.061951	-0.18616	0.3067	0.034485	-0.005646	0.006866	-0.063629	0.000763	0.24902	-0.062256	-0.006714	0.000153
42.97	0.005035	0.65918	0.072632	0.006561	-0.010223	0.029602	-0.23773	0.001221	0.074463	-0.12497	0.012512	0.16647	0.14069	-0.30487	-0.006104	0.054932	-0.002747	-0.78949	-0.14114	0.11383	-0.009155	-0.21774	0.25223	0.007629	0.006409	0.014038	-0.63446	-0.003204	0.40848	-0.16388	-0.004883	-0.002441
42.971	0.00412	0.6044	0.22476	0.016479	-0.01709	0.036011	-0.26138	0.005493	0.13672	-0.039215	0.018768	0.13046	0.072174	-0.15243	0.012817	0.28259	-0.005493	-0.86365	-0.22461	0.096741	-0.073853	-0.14191	0.22095	0.12299	0.003204	0	-0.29999	-0.005798	0.013428	-0.11459	0.000458	-0.013885
